<svg width="173" height="77" viewBox="0 0 173 77" fill="none" xmlns="http://www.w3.org/2000/svg">
<path d="M74.9961 47H72.8281V34.3203H74.9961V47ZM72.6523 30.957C72.6523 30.6055 72.7578 30.3086 72.9688 30.0664C73.1875 29.8242 73.5078 29.7031 73.9297 29.7031C74.3516 29.7031 74.6719 29.8242 74.8906 30.0664C75.1094 30.3086 75.2188 30.6055 75.2188 30.957C75.2188 31.3086 75.1094 31.6016 74.8906 31.8359C74.6719 32.0703 74.3516 32.1875 73.9297 32.1875C73.5078 32.1875 73.1875 32.0703 72.9688 31.8359C72.7578 31.6016 72.6523 31.3086 72.6523 30.957ZM80.5156 34.3203L80.5742 35.7266C81.5039 34.6328 82.7578 34.0859 84.3359 34.0859C86.1094 34.0859 87.3164 34.7656 87.957 36.125C88.3789 35.5156 88.9258 35.0234 89.5977 34.6484C90.2773 34.2734 91.0781 34.0859 92 34.0859C94.7812 34.0859 96.1953 35.5586 96.2422 38.5039V47H94.0742V38.6328C94.0742 37.7266 93.8672 37.0508 93.4531 36.6055C93.0391 36.1523 92.3438 35.9258 91.3672 35.9258C90.5625 35.9258 89.8945 36.168 89.3633 36.6523C88.832 37.1289 88.5234 37.7734 88.4375 38.5859V47H86.2578V38.6914C86.2578 36.8477 85.3555 35.9258 83.5508 35.9258C82.1289 35.9258 81.1562 36.5312 80.6328 37.7422V47H78.4648V34.3203H80.5156ZM107.352 47C107.227 46.75 107.125 46.3047 107.047 45.6641C106.039 46.7109 104.836 47.2344 103.438 47.2344C102.188 47.2344 101.16 46.8828 100.355 46.1797C99.5586 45.4688 99.1602 44.5703 99.1602 43.4844C99.1602 42.1641 99.6602 41.1406 100.66 40.4141C101.668 39.6797 103.082 39.3125 104.902 39.3125H107.012V38.3164C107.012 37.5586 106.785 36.957 106.332 36.5117C105.879 36.0586 105.211 35.832 104.328 35.832C103.555 35.832 102.906 36.0273 102.383 36.418C101.859 36.8086 101.598 37.2812 101.598 37.8359H99.418C99.418 37.2031 99.6406 36.5938 100.086 36.0078C100.539 35.4141 101.148 34.9453 101.914 34.6016C102.688 34.2578 103.535 34.0859 104.457 34.0859C105.918 34.0859 107.062 34.4531 107.891 35.1875C108.719 35.9141 109.148 36.918 109.18 38.1992V44.0352C109.18 45.1992 109.328 46.125 109.625 46.8125V47H107.352ZM103.754 45.3477C104.434 45.3477 105.078 45.1719 105.688 44.8203C106.297 44.4688 106.738 44.0117 107.012 43.4492V40.8477H105.312C102.656 40.8477 101.328 41.625 101.328 43.1797C101.328 43.8594 101.555 44.3906 102.008 44.7734C102.461 45.1562 103.043 45.3477 103.754 45.3477ZM118.707 36.2656C118.379 36.2109 118.023 36.1836 117.641 36.1836C116.219 36.1836 115.254 36.7891 114.746 38V47H112.578V34.3203H114.688L114.723 35.7852C115.434 34.6523 116.441 34.0859 117.746 34.0859C118.168 34.0859 118.488 34.1406 118.707 34.25V36.2656ZM119.949 40.5547C119.949 38.5625 120.406 36.9883 121.32 35.832C122.234 34.668 123.461 34.0859 125 34.0859C126.5 34.0859 127.684 34.5898 128.551 35.5977L128.645 34.3203H130.637V51.875H128.469V45.8281C127.594 46.7656 126.43 47.2344 124.977 47.2344C123.445 47.2344 122.223 46.6406 121.309 45.4531C120.402 44.2578 119.949 42.6758 119.949 40.707V40.5547ZM122.117 40.8008C122.117 42.2539 122.422 43.3945 123.031 44.2227C123.648 45.0508 124.477 45.4648 125.516 45.4648C126.805 45.4648 127.789 44.8945 128.469 43.7539V37.543C127.781 36.4258 126.805 35.8672 125.539 35.8672C124.492 35.8672 123.66 36.2852 123.043 37.1211C122.426 37.9492 122.117 39.1758 122.117 40.8008ZM141.945 45.7461C141.102 46.7383 139.863 47.2344 138.23 47.2344C136.879 47.2344 135.848 46.8438 135.137 46.0625C134.434 45.2734 134.078 44.1094 134.07 42.5703V34.3203H136.238V42.5117C136.238 44.4336 137.02 45.3945 138.582 45.3945C140.238 45.3945 141.34 44.7773 141.887 43.543V34.3203H144.055V47H141.992L141.945 45.7461ZM152.621 47.2344C150.902 47.2344 149.504 46.6719 148.426 45.5469C147.348 44.4141 146.809 42.9023 146.809 41.0117V40.6133C146.809 39.3555 147.047 38.2344 147.523 37.25C148.008 36.2578 148.68 35.4844 149.539 34.9297C150.406 34.3672 151.344 34.0859 152.352 34.0859C154 34.0859 155.281 34.6289 156.195 35.7148C157.109 36.8008 157.566 38.3555 157.566 40.3789V41.2812H148.977C149.008 42.5312 149.371 43.543 150.066 44.3164C150.77 45.082 151.66 45.4648 152.738 45.4648C153.504 45.4648 154.152 45.3086 154.684 44.9961C155.215 44.6836 155.68 44.2695 156.078 43.7539L157.402 44.7852C156.34 46.418 154.746 47.2344 152.621 47.2344ZM152.352 35.8672C151.477 35.8672 150.742 36.1875 150.148 36.8281C149.555 37.4609 149.188 38.3516 149.047 39.5H155.398V39.3359C155.336 38.2344 155.039 37.3828 154.508 36.7812C153.977 36.1719 153.258 35.8672 152.352 35.8672ZM167.469 43.6367C167.469 43.0508 167.246 42.5977 166.801 42.2773C166.363 41.9492 165.594 41.668 164.492 41.4336C163.398 41.1992 162.527 40.918 161.879 40.5898C161.238 40.2617 160.762 39.8711 160.449 39.418C160.145 38.9648 159.992 38.4258 159.992 37.8008C159.992 36.7617 160.43 35.8828 161.305 35.1641C162.188 34.4453 163.312 34.0859 164.68 34.0859C166.117 34.0859 167.281 34.457 168.172 35.1992C169.07 35.9414 169.52 36.8906 169.52 38.0469H167.34C167.34 37.4531 167.086 36.9414 166.578 36.5117C166.078 36.082 165.445 35.8672 164.68 35.8672C163.891 35.8672 163.273 36.0391 162.828 36.3828C162.383 36.7266 162.16 37.1758 162.16 37.7305C162.16 38.2539 162.367 38.6484 162.781 38.9141C163.195 39.1797 163.941 39.4336 165.02 39.6758C166.105 39.918 166.984 40.207 167.656 40.543C168.328 40.8789 168.824 41.2852 169.145 41.7617C169.473 42.2305 169.637 42.8047 169.637 43.4844C169.637 44.6172 169.184 45.5273 168.277 46.2148C167.371 46.8945 166.195 47.2344 164.75 47.2344C163.734 47.2344 162.836 47.0547 162.055 46.6953C161.273 46.3359 160.66 45.8359 160.215 45.1953C159.777 44.5469 159.559 43.8477 159.559 43.0977H161.727C161.766 43.8242 162.055 44.4023 162.594 44.832C163.141 45.2539 163.859 45.4648 164.75 45.4648C165.57 45.4648 166.227 45.3008 166.719 44.9727C167.219 44.6367 167.469 44.1914 167.469 43.6367Z" fill="#999999"/>
<path d="M61.784 31.5205C66.9348 34.6067 66.9767 42.0557 61.861 45.1991L30.7302 64.3276C25.4171 67.5923 18.577 63.7921 18.5418 57.556L18.3284 19.647C18.2933 13.4109 25.0902 9.53471 30.4398 12.74L61.784 31.5205Z" fill="#ABDB25"/>
<path d="M56.2425 35.2496C59.1177 36.7416 59.1197 40.8539 56.2459 42.3487L29.1302 56.4525C26.4681 57.8371 23.2858 55.9064 23.2844 52.9057L23.2709 24.7237C23.2695 21.7231 26.4499 19.7893 29.1133 21.1714L56.2425 35.2496Z" fill="#2F303A"/>
</svg>
